# File created by Blade
# Date/Time:  Tue Jan 27 20:08:00 2015
#---------------------------------------------------------
:version 1.10
:name HOM
:units
  mass 1.0
  length 1.000000
  angle deg
:documentation
     Acclaim Skeleton File
:root
   axis xyz
   order TX TY TZ RX RY RZ
   position 0.000000 0.000000 0.000000
   orientation 0 0 0
:bonedata
   begin
      id 1
      name Spine_dum
      direction 0.000000 1.000000 0.000000
      length 6.116652
      axis 0.0 0.0 0.0 xyz
   end
   begin
      id 2
      name LeftUpLeg_dum
      direction 1.000000 0.000000 0.000000
      length 4.711765
      axis 0.0 0.0 0.0 xyz
   end
   begin
      id 3
      name RightUpLeg_dum
      direction -1.000000 0.000000 0.000000
      length 4.711765
      axis 0.0 0.0 0.0 xyz
   end
   begin
      id 4
      name Spine
      direction 0.000000 1.000000 0.000000
      length 0.000000
      axis 0.0 0.0 0.0 xyz
      dof rx ry rz
   end
   begin
      id 5
      name Spine_dum1
      direction 0.000000 1.000000 0.000000
      length 15.225563
      axis 0.0 0.0 0.0 xyz
   end
   begin
      id 6
      name Spine_dum2
      direction 0.000000 1.000000 0.000000
      length 8.977654
      axis 0.0 0.0 0.0 xyz
   end
   begin
      id 7
      name Spine_dum3
      direction 0.000000 1.000000 0.000000
      length 8.977654
      axis 0.0 0.0 0.0 xyz
   end
   begin
      id 8
      name Head
      direction 0.000000 1.000000 0.000000
      length 4.527550
      axis 0.0 0.0 0.0 xyz
      dof rx ry rz
   end
   begin
      id 9
      name LeftShoulder
      direction 1.000000 0.000000 0.000000
      length 7.110130
      axis 0.0 0.0 -90.0 xyz
      dof rx ry rz
   end
   begin
      id 10
      name LeftArm
      direction 1.000000 0.000000 0.000000
      length 10.398341
      axis 0.0 0.0 -90.0 xyz
      dof rx ry rz
   end
   begin
      id 11
      name LeftForeArm
      direction 1.000000 0.000000 0.000000
      length 8.888997
      axis 0.0 0.0 -90.0 xyz
      dof ry rz rx
   end
   begin
      id 12
      name LeftHand
      direction 0.000000 0.000000 0.000000
      length 0.000000
      axis 0.0 0.0 -90.0 xyz
      dof rx ry rz
   end
   begin
      id 13
      name LeftHand_dum1
      direction 0.000000 0.000000 0.000000
      length 0.000000
      axis 0.0 0.0 -90.0 xyz
   end
   begin
      id 14
      name LeftHand_dum2
      direction 1.000000 0.000000 0.000000
      length 3.937000
      axis 0.0 0.0 -90.0 xyz
   end
   begin
      id 15
      name LeftHandThumb1
      direction 0.000000 0.000000 1.000000
      length 3.937000
      axis 0.0 0.0 -90.0 xyz
      dof rx rz ry
   end
   begin
      id 16
      name RightShoulder
      direction -1.000000 0.000000 0.000000
      length 7.110130
      axis 0.0 0.0 90.0 xyz
      dof rx ry rz
   end
   begin
      id 17
      name RightArm
      direction -1.000000 0.000000 0.000000
      length 10.398341
      axis 0.0 0.0 90.0 xyz
      dof rx ry rz
   end
   begin
      id 18
      name RightForeArm
      direction -1.000000 0.000000 0.000000
      length 8.888997
      axis 0.0 0.0 90.0 xyz
      dof ry rz rx
   end
   begin
      id 19
      name RightHand
      direction 0.000000 0.000000 0.000000
      length 0.000000
      axis 0.0 0.0 90.0 xyz
      dof rx ry rz
   end
   begin
      id 20
      name RightHand_dum1
      direction 0.000000 0.000000 0.000000
      length 0.000000
      axis 0.0 0.0 90.0 xyz
   end
   begin
      id 21
      name RightHand_dum2
      direction -1.000000 0.000000 0.000000
      length 3.937000
      axis 0.0 0.0 90.0 xyz
   end
   begin
      id 22
      name RightHandThumb1
      direction 0.000000 0.000000 1.000000
      length 3.937000
      axis 0.0 0.0 90.0 xyz
      dof rx rz ry
   end
   begin
      id 23
      name LeftUpLeg
      direction 0.000000 -1.000000 0.000000
      length 15.510451
      axis 0.0 0.0 0.0 xyz
      dof rx ry rz
   end
   begin
      id 24
      name LeftLeg
      direction 0.000000 -1.000000 0.000000
      length 14.858061
      axis 0.0 0.0 0.0 xyz
      dof rx ry rz
   end
   begin
      id 25
      name LeftFoot
      direction 0.000000 -0.258819 0.965926
      length 5.128852
      axis 15.0 0.0 0.0 xyz
      dof rx ry rz
   end
   begin
      id 26
      name LeftToeBase
      direction 0.000000 0.000000 1.000000
      length 2.952750
      axis 0.0 0.0 0.0 xyz
      dof rx ry rz
   end
   begin
      id 27
      name RightUpLeg
      direction 0.000000 -1.000000 0.000000
      length 15.510451
      axis 0.0 0.0 0.0 xyz
      dof rx ry rz
   end
   begin
      id 28
      name RightLeg
      direction 0.000000 -1.000000 0.000000
      length 14.858061
      axis 0.0 0.0 0.0 xyz
      dof rx ry rz
   end
   begin
      id 29
      name RightFoot
      direction 0.000000 -0.258819 0.965926
      length 5.128852
      axis 15.0 0.0 0.0 xyz
      dof rx ry rz
   end
   begin
      id 30
      name RightToeBase
      direction 0.000000 0.000000 1.000000
      length 2.952750
      axis 0.0 0.0 0.0 xyz
      dof rx ry rz
   end
:hierarchy
   begin
      root Spine_dum LeftUpLeg_dum RightUpLeg_dum
      Spine_dum Spine
      LeftUpLeg_dum LeftUpLeg
      RightUpLeg_dum RightUpLeg
      Spine Spine_dum1 Spine_dum2 Spine_dum3
      Spine_dum1 Head
      Spine_dum2 LeftShoulder
      Spine_dum3 RightShoulder
      LeftShoulder LeftArm
      LeftArm LeftForeArm
      LeftForeArm LeftHand
      LeftHand LeftHand_dum1 LeftHand_dum2
      LeftHand_dum1 LeftHandThumb1
      RightShoulder RightArm
      RightArm RightForeArm
      RightForeArm RightHand
      RightHand RightHand_dum1 RightHand_dum2
      RightHand_dum1 RightHandThumb1
      LeftUpLeg LeftLeg
      LeftLeg LeftFoot
      LeftFoot LeftToeBase
      RightUpLeg RightLeg
      RightLeg RightFoot
      RightFoot RightToeBase
   end

# File created by Blade
# Date/Time:  Tue Jan 27 20:07:51 2015
# Frame Rate: 120.000 fps
#------------------------------------------------------
:FULLY-SPECIFIED
:DEGREES
641
root 7.880682 32.322718 -3.978946 -7.929893 44.026598 -1.069402
Spine 6.284597 -8.107585 -6.598541
Head 14.558536 -19.957937 6.909425
LeftShoulder -9.641517 -9.077446 31.388489
LeftArm 0.909377 1.879010 -83.570861
LeftForeArm -9.991938 0.000000 111.681028
LeftHand 11.769545 -0.000000 12.435220
LeftHandThumb1 -26.253704 0.000000 33.147579
RightShoulder -20.983773 -17.999979 -21.011006
RightArm 9.346884 -25.459435 93.983503
RightForeArm -15.311335 -0.000000 22.704637
RightHand 16.380863 -0.000000 2.820623
RightHandThumb1 -24.326973 -0.000000 -32.862282
LeftUpLeg 13.646786 -12.337960 -8.712995
LeftLeg 0.006142 -0.000000 -0.000000
LeftFoot -12.260516 5.628750 -14.945531
LeftToeBase 19.157170 -0.000000 -0.000000
RightUpLeg -44.755195 15.213175 8.711766
RightLeg 89.950214 -0.000000 -0.000000
RightFoot 17.712524 -17.253317 15.906972
RightToeBase 19.338287 -0.000000 -0.000000
642
root 7.882136 32.321550 -3.977125 -7.918483 44.077008 -1.051788
Spine 6.253705 -8.142754 -6.624600
Head 14.681215 -19.849710 6.916929
LeftShoulder -9.652300 -9.012216 31.391028
LeftArm 0.825913 1.865767 -83.509735
LeftForeArm -10.136382 -0.000000 111.808761
LeftHand 11.796117 0.000000 12.341978
LeftHandThumb1 -26.253704 0.000000 33.147579
RightShoulder -20.988717 -17.983628 -21.013967
RightArm 9.376281 -25.528567 93.925737
RightForeArm -15.288245 -0.000000 22.639972
RightHand 16.377484 -0.000000 2.785971
RightHandThumb1 -24.326973 -0.000000 -32.862282
LeftUpLeg 13.654463 -12.331215 -8.722456
LeftLeg -0.002409 -0.000000 0.000000
LeftFoot -12.245777 5.602083 -14.893379
LeftToeBase 19.109238 -0.000000 -0.000000
RightUpLeg -44.744068 15.262871 8.683003
RightLeg 91.552630 -0.000000 -0.000000
RightFoot 18.120634 -17.331080 15.743929
RightToeBase 21.040678 -0.000000 -0.000000
643
root 7.884108 32.319241 -3.979994 -7.872150 44.137938 -1.009964
Spine 6.220925 -8.186141 -6.665988
Head 14.756922 -19.769669 6.949833
LeftShoulder -9.683822 -8.901896 31.405261
LeftArm 0.804777 1.864457 -83.519288
LeftForeArm -10.221251 -0.000000 111.938307
LeftHand 11.851225 -0.000000 12.293281
LeftHandThumb1 -26.253704 0.000000 33.147579
RightShoulder -20.993493 -18.002536 -21.018401
RightArm 9.440363 -25.518616 93.892469
RightForeArm -15.266117 -0.000000 22.578729
RightHand 16.324615 -0.000000 2.633162
RightHandThumb1 -24.326973 -0.000000 -32.862282
LeftUpLeg 13.623807 -12.360494 -8.757134
LeftLeg 0.016765 -0.000000 -0.000000
LeftFoot -12.244262 5.581491 -14.908567
LeftToeBase 19.203070 -0.000000 -0.000000
RightUpLeg -44.739769 15.269803 8.623641
RightLeg 93.139692 -0.000000 -0.000000
RightFoot 18.673618 -17.103910 15.244751
RightToeBase 21.372647 -0.000000 -0.000000
644
root 7.891200 32.316379 -3.975869 -7.886833 44.223930 -0.952670
Spine 6.266844 -8.244034 -6.737664
Head 14.796778 -19.696330 6.998449
LeftShoulder -9.731064 -8.782938 31.428658
LeftArm 0.784502 1.885577 -83.518796
LeftForeArm -10.289544 -0.000000 112.088211
LeftHand 11.773164 -0.000000 12.225281
LeftHandThumb1 -26.253704 0.000000 33.147579
RightShoulder -20.987460 -17.985773 -21.047795
RightArm 9.394890 -25.463688 93.908981
RightForeArm -15.328134 -0.000000 22.619145
RightHand 16.310928 -0.000000 2.575176
RightHandThumb1 -24.326973 -0.000000 -32.862282
LeftUpLeg 13.693468 -12.434670 -8.833861
LeftLeg 0.022822 -0.000000 -0.000000
LeftFoot -12.232569 5.603517 -14.861727
LeftToeBase 19.151078 -0.000000 -0.000000
RightUpLeg -44.649218 15.580881 8.545056
RightLeg 94.691677 -0.000000 -0.000000
RightFoot 18.932373 -17.006063 15.955394
RightToeBase 21.006046 -0.000000 -0.000000
645
root 7.893978 32.314734 -3.975934 -7.891267 44.270100 -0.916153
Spine 6.297022 -8.266832 -6.779022
Head 14.826969 -19.646928 7.034885
LeftShoulder -9.770169 -8.679406 31.438722
LeftArm 0.752469 1.869923 -83.536718
LeftForeArm -10.386438 -0.000000 112.248915
LeftHand 11.855615 -0.000000 12.083433
LeftHandThumb1 -26.253704 0.000000 33.147579
RightShoulder -20.973115 -17.980472 -21.073393
RightArm 9.376967 -25.415019 93.918375
RightForeArm -15.286343 0.000000 22.668878
RightHand 16.340570 -0.000000 2.613609
RightHandThumb1 -24.326973 -0.000000 -32.862282
LeftUpLeg 13.716154 -12.469590 -8.877507
LeftLeg 0.036020 -0.000000 -0.000000
LeftFoot -12.256913 5.618715 -14.909823
LeftToeBase 19.244125 -0.000000 -0.000000
RightUpLeg -44.548455 15.658682 8.458874
RightLeg 96.155580 -0.000000 -0.000000
RightFoot 19.664416 -16.486377 15.624467
RightToeBase 20.230778 -0.000000 -0.000000
646
root 7.894673 32.313520 -3.976812 -7.896883 44.310306 -0.876692
Spine 6.340898 -8.257309 -6.824410
Head 14.844428 -19.613943 7.083505
LeftShoulder -9.808175 -8.549041 31.432757
LeftArm 0.802829 1.899344 -83.560301
LeftForeArm -10.377384 -0.000000 112.394825
LeftHand 11.871521 -0.000000 12.075259
LeftHandThumb1 -26.253704 0.000000 33.147579
RightShoulder -20.977174 -18.017465 -21.073139
RightArm 9.383881 -25.333563 93.925782
RightForeArm -15.290810 0.000000 22.750186
RightHand 16.372931 -0.000000 2.729795
RightHandThumb1 -24.326973 -0.000000 -32.862282
LeftUpLeg 13.731262 -12.495173 -8.921102
LeftLeg 0.078123 -0.000000 -0.000000
LeftFoot -12.274719 5.623043 -14.961683
LeftToeBase 19.294475 -0.000000 -0.000000
RightUpLeg -44.415516 15.682718 8.428249
RightLeg 97.506926 -0.000000 -0.000000
RightFoot 20.476928 -16.265258 15.162295
RightToeBase 20.514615 -0.000000 -0.000000
647
root 7.897342 32.310616 -3.979252 -7.940031 44.341829 -0.855857
Spine 6.418633 -8.241867 -6.835825
Head 14.844015 -19.587101 7.090752
LeftShoulder -9.845967 -8.489574 31.421272
LeftArm 0.802214 1.927696 -83.596154
LeftForeArm -10.349050 -0.000000 112.530669
LeftHand 11.798551 -0.000000 12.025033
LeftHandThumb1 -26.253704 0.000000 33.147579
RightShoulder -20.969612 -18.018026 -21.109496
RightArm 9.373517 -25.304512 93.937465
RightForeArm -15.111816 -0.000000 22.806439
RightHand 16.330369 -0.000000 2.624489
RightHandThumb1 -24.326973 -0.000000 -32.862282
LeftUpLeg 13.723851 -12.270061 -8.869475
LeftLeg 0.163652 -0.000000 -0.000000
LeftFoot -12.270137 5.193835 -15.095485
LeftToeBase 19.553266 -0.000000 -0.000000
RightUpLeg -44.233840 15.683239 8.428591
RightLeg 98.831512 -0.000000 -0.000000
RightFoot 21.338919 -15.975835 14.562922
RightToeBase 20.391108 -0.000000 -0.000000
648
root 7.896679 32.308741 -3.980753 -7.968999 44.379143 -0.827937
Spine 6.483424 -8.185203 -6.868418
Head 14.863067 -19.633337 7.119221
LeftShoulder -9.847744 -8.465841 31.419486
LeftArm 0.808300 1.954880 -83.620071
LeftForeArm -10.338005 0.000000 112.633089
LeftHand 11.843732 -0.000000 11.914829
LeftHandThumb1 -26.253704 0.000000 33.147579
RightShoulder -20.985038 -18.057100 -21.118164
RightArm 9.350399 -25.199126 93.968631
RightForeArm -15.261048 -0.000000 22.915437
RightHand 16.238378 -0.000000 1.592085
RightHandThumb1 -24.326973 -0.000000 -32.862282
LeftUpLeg 13.740556 -12.247640 -8.892975
LeftLeg 0.217867 -0.000000 -0.000000
LeftFoot -12.271095 5.141092 -15.058435
LeftToeBase 19.470145 -0.000000 -0.000000
RightUpLeg -44.052350 15.700459 8.419136
RightLeg 100.110979 -0.000000 -0.000000
RightFoot 22.100578 -15.933142 14.538986
RightToeBase 21.094592 -0.000000 -0.000000
649
root 7.896233 32.305819 -3.984533 -7.967697 44.416052 -0.778261
Spine 6.518869 -8.125270 -6.907334
Head 14.931597 -19.651527 7.106876
LeftShoulder -9.853285 -8.409503 31.410243
LeftArm 0.877449 1.995029 -83.641357
LeftForeArm -10.286713 -0.000000 112.692830
LeftHand 11.834445 -0.000000 11.881492
LeftHandThumb1 -26.253704 0.000000 33.147579
RightShoulder -20.980428 -18.101632 -21.144534
RightArm 9.321533 -25.133268 93.995634
RightForeArm -15.227964 0.000000 23.057277
RightHand 16.281662 0.000000 1.983962
RightHandThumb1 -24.326973 -0.000000 -32.862282
LeftUpLeg 13.758221 -12.285372 -8.949478
LeftLeg 0.241780 -0.000000 -0.000000
LeftFoot -12.300373 5.176389 -15.069823
LeftToeBase 19.490520 -0.000000 -0.000000
RightUpLeg -43.884811 15.664919 8.410784
RightLeg 101.347180 -0.000000 -0.000000
RightFoot 23.345074 -15.763827 13.767160
RightToeBase 20.553862 -0.000000 -0.000000
